<?xml version="1.0" encoding="UTF-8" standalone="no"?>
<svg
   width="210mm"
   height="297mm"
   viewBox="0 0 210 297"
   version="1.1"
   id="svg8"
   inkscape:version="1.2.2 (732a01da63, 2022-12-09)"
   sodipodi:docname="drawing.svg"
   inkscape:export-filename="doc\pict\favicon.png"
   inkscape:export-xdpi="96.007904"
   inkscape:export-ydpi="96.007904"
   xmlns:inkscape="http://www.inkscape.org/namespaces/inkscape"
   xmlns:sodipodi="http://sodipodi.sourceforge.net/DTD/sodipodi-0.dtd"
   xmlns="http://www.w3.org/2000/svg"
   xmlns:svg="http://www.w3.org/2000/svg"
   xmlns:rdf="http://www.w3.org/1999/02/22-rdf-syntax-ns#"
   xmlns:cc="http://creativecommons.org/ns#"
   xmlns:dc="http://purl.org/dc/elements/1.1/">
  <defs
     id="defs2">
    <marker
       style="overflow:visible;"
       id="marker2501"
       refX="0.0"
       refY="0.0"
       orient="auto"
       inkscape:stockid="Arrow1Lend"
       inkscape:isstock="true">
      <path
         transform="scale(0.8) rotate(180) translate(12.5,0)"
         style="fill-rule:evenodd;stroke:#000000;stroke-width:1pt;stroke-opacity:1;fill:#000000;fill-opacity:1"
         d="M 0.0,0.0 L 5.0,-5.0 L -12.5,0.0 L 5.0,5.0 L 0.0,0.0 z "
         id="path2499" />
    </marker>
    <marker
       style="overflow:visible;"
       id="marker2491"
       refX="0.0"
       refY="0.0"
       orient="auto"
       inkscape:stockid="Arrow1Lend"
       inkscape:isstock="true">
      <path
         transform="scale(0.8) rotate(180) translate(12.5,0)"
         style="fill-rule:evenodd;stroke:#000000;stroke-width:1pt;stroke-opacity:1;fill:#000000;fill-opacity:1"
         d="M 0.0,0.0 L 5.0,-5.0 L -12.5,0.0 L 5.0,5.0 L 0.0,0.0 z "
         id="path2489" />
    </marker>
    <marker
       style="overflow:visible;"
       id="marker2481"
       refX="0.0"
       refY="0.0"
       orient="auto"
       inkscape:stockid="Arrow1Lend"
       inkscape:isstock="true">
      <path
         transform="scale(0.8) rotate(180) translate(12.5,0)"
         style="fill-rule:evenodd;stroke:#800000;stroke-width:1pt;stroke-opacity:1;fill:#800000;fill-opacity:1"
         d="M 0.0,0.0 L 5.0,-5.0 L -12.5,0.0 L 5.0,5.0 L 0.0,0.0 z "
         id="path2479" />
    </marker>
    <marker
       style="overflow:visible"
       id="marker2471"
       refX="0"
       refY="0"
       orient="auto"
       inkscape:stockid="Arrow1Lend"
       inkscape:isstock="true">
      <path
         transform="matrix(-0.8,0,0,-0.8,-10,0)"
         style="fill:#800000;fill-opacity:1;fill-rule:evenodd;stroke:#800000;stroke-width:1pt;stroke-opacity:1"
         d="M 0,0 5,-5 -12.5,0 5,5 Z"
         id="path2469" />
    </marker>
    <marker
       style="overflow:visible;"
       id="marker2461"
       refX="0.0"
       refY="0.0"
       orient="auto"
       inkscape:stockid="Arrow1Lend"
       inkscape:isstock="true">
      <path
         transform="scale(0.8) rotate(180) translate(12.5,0)"
         style="fill-rule:evenodd;stroke:#000000;stroke-width:1pt;stroke-opacity:1;fill:#000000;fill-opacity:1"
         d="M 0.0,0.0 L 5.0,-5.0 L -12.5,0.0 L 5.0,5.0 L 0.0,0.0 z "
         id="path2459" />
    </marker>
    <marker
       style="overflow:visible;"
       id="marker2451"
       refX="0.0"
       refY="0.0"
       orient="auto"
       inkscape:stockid="Arrow1Lend"
       inkscape:isstock="true">
      <path
         transform="scale(0.8) rotate(180) translate(12.5,0)"
         style="fill-rule:evenodd;stroke:#000000;stroke-width:1pt;stroke-opacity:1;fill:#000000;fill-opacity:1"
         d="M 0.0,0.0 L 5.0,-5.0 L -12.5,0.0 L 5.0,5.0 L 0.0,0.0 z "
         id="path2449" />
    </marker>
    <marker
       style="overflow:visible;"
       id="marker1837"
       refX="0.0"
       refY="0.0"
       orient="auto"
       inkscape:stockid="Arrow1Lend"
       inkscape:isstock="true">
      <path
         transform="scale(0.8) rotate(180) translate(12.5,0)"
         style="fill-rule:evenodd;stroke:#000000;stroke-width:1pt;stroke-opacity:1;fill:#000000;fill-opacity:1"
         d="M 0.0,0.0 L 5.0,-5.0 L -12.5,0.0 L 5.0,5.0 L 0.0,0.0 z "
         id="path1835" />
    </marker>
  </defs>
  <sodipodi:namedview
     id="base"
     pagecolor="#ffffff"
     bordercolor="#666666"
     borderopacity="1.0"
     inkscape:pageopacity="0.0"
     inkscape:pageshadow="2"
     inkscape:zoom="3.941032"
     inkscape:cx="87.033042"
     inkscape:cy="118.62375"
     inkscape:document-units="mm"
     inkscape:current-layer="layer1"
     inkscape:document-rotation="0"
     showgrid="false"
     inkscape:window-width="1366"
     inkscape:window-height="683"
     inkscape:window-x="-8"
     inkscape:window-y="-8"
     inkscape:window-maximized="1"
     inkscape:snap-bbox="true"
     inkscape:snap-midpoints="true"
     inkscape:showpageshadow="2"
     inkscape:pagecheckerboard="0"
     inkscape:deskcolor="#d1d1d1" />
  <metadata
     id="metadata5">
    <rdf:RDF>
      <cc:Work
         rdf:about="">
        <dc:format>image/svg+xml</dc:format>
        <dc:type
           rdf:resource="http://purl.org/dc/dcmitype/StillImage" />
        <dc:title />
      </cc:Work>
    </rdf:RDF>
  </metadata>
  <g
     inkscape:label="Layer 1"
     inkscape:groupmode="layer"
     id="layer1">
    <rect
       style="fill:#f2f2f2;fill-opacity:1;stroke:none;stroke-width:0.3175;stroke-linecap:round"
       id="rect405"
       width="29.942453"
       height="27.189896"
       x="6.8478255"
       y="14.367005" />
    <text
       xml:space="preserve"
       style="font-style:normal;font-weight:normal;font-size:3.175px;line-height:1.25;font-family:sans-serif;fill:#ff0000;fill-opacity:1;stroke:none;stroke-width:0.264583"
       x="6.3311005"
       y="8.5044641"
       id="text839"><tspan
         sodipodi:role="line"
         id="tspan837"
         x="6.3311005"
         y="8.5044641"
         style="font-size:3.175px;fill:#ff0000;stroke:none;stroke-width:0.264583">Export at 96 dpi (45 by 45 px) </tspan><tspan
         sodipodi:role="line"
         x="6.3311005"
         y="12.473214"
         style="font-size:3.175px;fill:#ff0000;stroke:none;stroke-width:0.264583"
         id="tspan841">and use as a favicon.png.</tspan></text>
    <text
       xml:space="preserve"
       style="font-style:normal;font-weight:normal;font-size:3.175px;line-height:1.25;font-family:sans-serif;fill:#ff0000;fill-opacity:1;stroke:none;stroke-width:0.264583"
       x="77.728989"
       y="8.5044641"
       id="text3212"><tspan
         sodipodi:role="line"
         x="77.728989"
         y="8.5044641"
         style="font-size:3.175px;fill:#ff0000;stroke:none;stroke-width:0.264583"
         id="tspan3210">Export all other pictures</tspan><tspan
         sodipodi:role="line"
         x="77.728989"
         y="12.473214"
         style="font-size:3.175px;fill:#ff0000;stroke:none;stroke-width:0.264583"
         id="tspan3216">at 96 dpi as well.</tspan></text>
    <path
       id="path616"
       style="fill:none;stroke:#000000;stroke-width:0.264583px;stroke-linecap:butt;stroke-linejoin:miter;stroke-opacity:1"
       d="m 48.293094,33.500848 -4.263107,-4.263107 c -2.354449,-2.354449 -2.354449,-6.171765 0,-8.526214 2.354449,-2.354449 6.171765,-2.354449 8.526214,0 2.354449,2.354449 2.354449,6.171765 0,8.526214 z"
       sodipodi:nodetypes="cssssc" />
    <g
       id="g2355"
       transform="matrix(0.99991973,0,0,0.99801149,-32.12087,-22.944634)"
       inkscape:export-filename="doc\favicon.png"
       inkscape:export-xdpi="96.007904"
       inkscape:export-ydpi="96.007904">
      <path
         style="color:#000000;fill:#ffffff;fill-opacity:1;stroke:#ffffff;stroke-width:0.33644;stroke-opacity:1;-inkscape-stroke:none"
         d="m 47.384904,40.712822 c -1.486034,0 -2.971797,0.462973 -4.097085,1.388643 -2.250577,1.851342 -2.250577,4.889245 0,6.740587 l 4.097085,3.370889 1.041116,-0.85643 3.056693,-2.514459 c 2.250579,-1.851342 2.250579,-4.889245 0,-6.740587 -1.125288,-0.92567 -2.611775,-1.388643 -4.097809,-1.388643 z"
         id="path2126" />
      <path
         style="color:#000000;fill:#ff0000;stroke:#ffffff;stroke-width:0.306115;stroke-opacity:1;-inkscape-stroke:none"
         d="m 47.339724,40.721395 c -1.226314,0 -2.452404,0.464447 -3.381021,1.393064 -1.857235,1.857235 -1.857235,4.904808 0,6.762043 l 3.381021,3.381619 0.859156,-0.859156 2.522463,-2.522463 c 1.857236,-1.857235 1.857236,-4.904808 0,-6.762043 -0.928617,-0.928617 -2.155305,-1.393064 -3.381619,-1.393064 z"
         id="path1264" />
      <path
         style="color:#000000;fill:#0000ff;stroke:none;stroke-width:0.306115;-inkscape-stroke:none"
         d="m 47.339724,42.325511 c -0.80855,0 -1.62034,0.318751 -2.23548,0.933892 -1.230707,1.230707 -1.230707,3.241448 0,4.472155 l 2.23548,2.23548 2.236078,-2.23548 c 1.230707,-1.230707 1.230707,-3.241448 0,-4.472155 -0.615386,-0.615386 -1.427528,-0.933892 -2.236078,-0.933892 z"
         id="path1272" />
      <path
         style="color:#000000;fill:#ffffff;stroke:none;stroke-width:0.306115;-inkscape-stroke:none"
         d="m 47.339724,43.945771 c 0.390226,0 0.777229,0.145866 1.090536,0.459173 0.626679,0.626679 0.626679,1.554394 0,2.181073 l -1.090536,1.089938 -1.089938,-1.089938 c -0.626679,-0.626679 -0.62668,-1.554394 0,-2.181073 0.313552,-0.313552 0.699711,-0.459173 1.089938,-0.459173 z"
         id="path1280" />
    </g>
  </g>
</svg>
